<svg xmlns="http://www.w3.org/2000/svg" viewBox="0 0 541.33331 360" xml:space="preserve" preserveAspectRatio="xMidYMid meet">
    <g transform="matrix(1.3333333,0,0,1.3333333,0,-330)">
        <g transform="matrix(0.480065,0,0,0.480061,0.0875,0)">
		<g transform="scale(1,-1)">
                <path style="fill:none;stroke:#2c2e35;stroke-width:1;stroke-linecap:butt;stroke-linejoin:miter;stroke-miterlimit:4;stroke-dasharray:none;stroke-opacity:1" d="m 134.438,-613.953 h 160.043 v -42.305 H 134.438 Z" />
                <path style="fill:none;stroke:#2c2e35;stroke-width:1;stroke-linecap:butt;stroke-linejoin:miter;stroke-miterlimit:4;stroke-dasharray:none;stroke-opacity:1" d="m 94.953,-700.215 h 62.801 v -25.996 H 94.953 Z" />
                <path style="fill:none;stroke:#2c2e35;stroke-width:1;stroke-linecap:butt;stroke-linejoin:miter;stroke-miterlimit:4;stroke-dasharray:none;stroke-opacity:1" d="m 271.168,-700.215 h 62.797 v -25.996 h -62.797 z" />
                <path style="fill:none;stroke:#2c2e35;stroke-width:1;stroke-linecap:butt;stroke-linejoin:miter;stroke-miterlimit:4;stroke-dasharray:none;stroke-opacity:1" d="m 168.605,-700.215 h 91.711 v -25.996 h -91.711 z" />
                <path style="fill:none;stroke:#2c2e35;stroke-width:1;stroke-linecap:butt;stroke-linejoin:miter;stroke-miterlimit:4;stroke-dasharray:none;stroke-opacity:1" d="m 353.105,-613.953 h 160.043 v -42.305 H 353.105 Z" />
                <path style="fill:none;stroke:#2c2e35;stroke-width:1;stroke-linecap:butt;stroke-linejoin:miter;stroke-miterlimit:4;stroke-dasharray:none;stroke-opacity:1" d="M 571.773,-613.953 H 731.82 v -42.305 H 571.773 Z" />
                <path style="fill:none;stroke:#2c2e35;stroke-width:1;stroke-linecap:butt;stroke-linejoin:miter;stroke-miterlimit:4;stroke-dasharray:none;stroke-opacity:1" d="m 167.613,-784.852 h 93.691 v -50.586 h -93.691 z" />
                <path style="fill:none;stroke:#2c2e35;stroke-width:1;stroke-linecap:butt;stroke-linejoin:miter;stroke-miterlimit:4;stroke-dasharray:none;stroke-opacity:1" d="m 168.605,-879.465 h 91.711 v -25.992 h -91.711 z" />
                <path style="fill:none;stroke:#2c2e35;stroke-width:1;stroke-linecap:butt;stroke-linejoin:miter;stroke-miterlimit:4;stroke-dasharray:none;stroke-opacity:1" d="m 168.605,-946.23 h 91.711 v -25.992 h -91.711 z" />
                <path style="fill:none;stroke:#2c2e35;stroke-width:1;stroke-linecap:butt;stroke-linejoin:miter;stroke-miterlimit:4;stroke-dasharray:none;stroke-opacity:1" d="m 114.789,-1008.238 h 91.707 v -25.996 h -91.707 z" />
                <path style="fill:none;stroke:#2c2e35;stroke-width:1;stroke-linecap:butt;stroke-linejoin:miter;stroke-miterlimit:4;stroke-dasharray:none;stroke-opacity:1" d="m 222.422,-1008.238 h 91.711 v -25.996 h -91.711 z" />
                <path style="fill:none;stroke:#2c2e35;stroke-width:1;stroke-linecap:butt;stroke-linejoin:miter;stroke-miterlimit:4;stroke-dasharray:none;stroke-opacity:1" d="m 386.285,-784.852 h 93.688 v -50.586 h -93.688 z" />
                <path style="fill:none;stroke:#2c2e35;stroke-width:1;stroke-linecap:butt;stroke-linejoin:miter;stroke-miterlimit:4;stroke-dasharray:none;stroke-opacity:1" d="m 387.273,-879.465 h 91.711 v -25.992 h -91.711 z" />
                <path style="fill:none;stroke:#2c2e35;stroke-width:1;stroke-linecap:butt;stroke-linejoin:miter;stroke-miterlimit:4;stroke-dasharray:none;stroke-opacity:1" d="m 387.273,-946.23 h 91.711 v -25.992 h -91.711 z" />
                <path style="fill:none;stroke:#2c2e35;stroke-width:1;stroke-linecap:butt;stroke-linejoin:miter;stroke-miterlimit:4;stroke-dasharray:none;stroke-opacity:1" d="m 333.457,-1008.238 h 91.711 v -25.996 h -91.711 z" />
                <path style="fill:none;stroke:#2c2e35;stroke-width:1;stroke-linecap:butt;stroke-linejoin:miter;stroke-miterlimit:4;stroke-dasharray:none;stroke-opacity:1" d="m 441.09,-1008.238 h 91.711 v -25.996 H 441.09 Z" />
                <path style="fill:none;stroke:#2c2e35;stroke-width:1;stroke-linecap:butt;stroke-linejoin:miter;stroke-miterlimit:4;stroke-dasharray:none;stroke-opacity:1" d="m 604.953,-784.852 h 93.688 v -50.586 h -93.688 z" />
                <path style="fill:none;stroke:#2c2e35;stroke-width:1;stroke-linecap:butt;stroke-linejoin:miter;stroke-miterlimit:4;stroke-dasharray:none;stroke-opacity:1" d="m 605.941,-874.258 h 91.711 v -36.391 h -91.711 z" />
                <path style="fill:none;stroke:#2c2e35;stroke-width:1;stroke-linecap:butt;stroke-linejoin:miter;stroke-miterlimit:4;stroke-dasharray:none;stroke-opacity:1" d="m 605.941,-946.23 h 91.711 v -25.992 h -91.711 z" />
                <path style="fill:none;stroke:#2c2e35;stroke-width:1;stroke-linecap:butt;stroke-linejoin:miter;stroke-miterlimit:4;stroke-dasharray:none;stroke-opacity:1" d="m 606.465,-1008.258 h 91.711 v -25.992 h -91.711 z" />
                <path style="fill:none;stroke:#2c2e35;stroke-width:1.85416698;stroke-linecap:butt;stroke-linejoin:miter;stroke-miterlimit:4;stroke-dasharray:none;stroke-opacity:1" d="m 433.129,-784.379 v 116.617" />
                <path style="fill:none;stroke:#2c2e35;stroke-width:1.85416698;stroke-linecap:butt;stroke-linejoin:miter;stroke-miterlimit:4;stroke-dasharray:none;stroke-opacity:1" d="m 433.129,-878.992 v 32.062" />
                <path style="fill:none;stroke:#2c2e35;stroke-width:1.85416698;stroke-linecap:butt;stroke-linejoin:miter;stroke-miterlimit:4;stroke-dasharray:none;stroke-opacity:1" d="m 214.984,-878.992 v 32.062" />
                <path style="fill:none;stroke:#2c2e35;stroke-width:1.85416698;stroke-linecap:butt;stroke-linejoin:miter;stroke-miterlimit:4;stroke-dasharray:none;stroke-opacity:1" d="m 267.141,-1006.742 -30.063,27.066" />
                <path style="fill:none;stroke:#2c2e35;stroke-width:1.85416698;stroke-linecap:butt;stroke-linejoin:miter;stroke-miterlimit:4;stroke-dasharray:none;stroke-opacity:1" d="m 485.809,-1006.742 -30.063,27.066" />
                <path style="fill:none;stroke:#2c2e35;stroke-width:1.85416698;stroke-linecap:butt;stroke-linejoin:miter;stroke-miterlimit:4;stroke-dasharray:none;stroke-opacity:1" d="m 305.16,-699.484 -39.387,35.449" />
                <path style="fill:none;stroke:#2c2e35;stroke-width:1.85416698;stroke-linecap:butt;stroke-linejoin:miter;stroke-miterlimit:4;stroke-dasharray:none;stroke-opacity:1" d="m 186.539,-784.039 -55.5,49.969" />
                <path style="fill:none;stroke:#2c2e35;stroke-width:1.85416698;stroke-linecap:butt;stroke-linejoin:miter;stroke-miterlimit:4;stroke-dasharray:none;stroke-opacity:1" d="m 246.68,-784.039 55.504,49.969" />
                <path style="fill:none;stroke:#2c2e35;stroke-width:1.85416698;stroke-linecap:butt;stroke-linejoin:miter;stroke-miterlimit:4;stroke-dasharray:none;stroke-opacity:1" d="m 124.82,-699.484 39.387,35.449" />
                <path style="fill:none;stroke:#2c2e35;stroke-width:1.85416698;stroke-linecap:butt;stroke-linejoin:miter;stroke-miterlimit:4;stroke-dasharray:none;stroke-opacity:1" d="m 161.262,-1006.742 30.062,27.066" />
                <path style="fill:none;stroke:#2c2e35;stroke-width:1.85416698;stroke-linecap:butt;stroke-linejoin:miter;stroke-miterlimit:4;stroke-dasharray:none;stroke-opacity:1" d="m 379.934,-1006.742 30.062,27.066" />
                <path style="fill:none;stroke:#2c2e35;stroke-width:1.85416698;stroke-linecap:butt;stroke-linejoin:miter;stroke-miterlimit:4;stroke-dasharray:none;stroke-opacity:1" d="m 214.984,-699.746 v 32.066" />
                <path style="fill:none;stroke:#2c2e35;stroke-width:1.85416698;stroke-linecap:butt;stroke-linejoin:miter;stroke-miterlimit:4;stroke-dasharray:none;stroke-opacity:1" d="m 214.984,-784.379 v 46.645" />
                <path style="fill:none;stroke:#2c2e35;stroke-width:1.85416698;stroke-linecap:butt;stroke-linejoin:miter;stroke-miterlimit:4;stroke-dasharray:none;stroke-opacity:1" d="m 652.324,-873.801 v 26.871" />
                <path style="fill:none;stroke:#2c2e35;stroke-width:1.85416698;stroke-linecap:butt;stroke-linejoin:miter;stroke-miterlimit:4;stroke-dasharray:none;stroke-opacity:1" d="m 433.129,-945.758 v 28.778" />
                <path style="fill:none;stroke:#2c2e35;stroke-width:1.85416698;stroke-linecap:butt;stroke-linejoin:miter;stroke-miterlimit:4;stroke-dasharray:none;stroke-opacity:1" d="m 214.984,-945.758 v 28.778" />
                <path style="fill:none;stroke:#2c2e35;stroke-width:1.85416698;stroke-linecap:butt;stroke-linejoin:miter;stroke-miterlimit:4;stroke-dasharray:none;stroke-opacity:1" d="m 652.324,-945.758 v 23.582" />
                <path style="fill:none;stroke:#2c2e35;stroke-width:1.85416698;stroke-linecap:butt;stroke-linejoin:miter;stroke-miterlimit:4;stroke-dasharray:none;stroke-opacity:1" d="m 652.324,-1007.785 v 24.055" />
                <path style="fill:none;stroke:#2c2e35;stroke-width:1.85416698;stroke-linecap:butt;stroke-linejoin:miter;stroke-miterlimit:4;stroke-dasharray:none;stroke-opacity:1" d="m 651.797,-784.379 v 116.617" />
                <path style="fill:none;stroke:#2c2e35;stroke-width:1.85416698;stroke-linecap:butt;stroke-linejoin:miter;stroke-miterlimit:4;stroke-dasharray:none;stroke-opacity:1" d="m 247.137,-609.887 v 17.614 h 147.406 v -8.805" />
                <path style="fill:none;stroke:#2c2e35;stroke-width:1.85416698;stroke-linecap:butt;stroke-linejoin:miter;stroke-miterlimit:4;stroke-dasharray:none;stroke-opacity:1" d="m 463.43,-609.887 v 17.614 h 147.406 v -8.805" />
                <path style="fill:none;stroke:#2c2e35;stroke-width:1.85416698;stroke-linecap:butt;stroke-linejoin:miter;stroke-miterlimit:4;stroke-dasharray:none;stroke-opacity:1" d="m 176.547,-602.445 v 30.664 h 508.504 v -30.664" />
            </g>
             <text style="font-variant:normal;font-weight:bold;font-size:14.78864002px;font-family:TimesNewRomanPS-BoldMT;writing-mode:lr-tb;fill:#2c2e35;fill-opacity:1;fill-rule:nonzero;stroke:none" transform="translate(149.83708,639.35669)">
                <tspan y="0" x="0 10.721591 22.786636 34.013699 43.96986 56.034908 68.27742 79.504478 89.915565 101.98061 113.251 233.20415 245.2692 257.33423 265.68735 276.99817 288.57941 300.64444 310.58582 322.65088">ДИАГНОСТИКАНОЗОЛОГИЯ</tspan>
            </text>
            <text style="font-variant:normal;font-weight:bold;font-size:14.78864002px;font-family:TimesNewRomanPS-BoldMT;writing-mode:lr-tb;fill:#2c2e35;fill-opacity:1;fill-rule:nonzero;stroke:none" transform="translate(612.88125,639.35669)">
                <tspan y="0" x="0 11.566449 21.992325 33.392693 43.80378 55.868824 67.933868">ЛЕЧЕНИЕ</tspan>
            </text>
            <text style="font-variant:normal;font-weight:bold;font-size:12.94005966px;font-family:TimesNewRomanPS-BoldMT;writing-mode:lr-tb;fill:#2c2e35;fill-opacity:1;fill-rule:nonzero;stroke:none" transform="translate(106.44186,716.22125)">
                <tspan y="0" x="0 6.4700298 12.252266 20.924076 27.238827 33.776287">осмотр</tspan>
            </text>
            <text style="font-variant:normal;font-weight:bold;font-size:12.94005966px;font-family:TimesNewRomanPS-BoldMT;writing-mode:lr-tb;fill:#2c2e35;fill-opacity:1;fill-rule:nonzero;stroke:none" transform="translate(286.04814,716.22125)">
                <tspan y="0" x="0 6.4700298 13.964549 21.161194 27.670044">опрос</tspan>
            </text>
            <text style="font-variant:normal;font-weight:bold;font-size:12.94005966px;font-family:TimesNewRomanPS-BoldMT;writing-mode:lr-tb;fill:#2c2e35;fill-opacity:1;fill-rule:nonzero;stroke:none" transform="translate(176.57334,716.22125)">
                <tspan y="0" x="0 6.4700298 17.446283 23.916315 31.410833 41.552757 48.540894 55.049744 62.505444 69.999962">ощупывание</tspan>
            </text>
            <text style="font-variant:normal;font-weight:bold;font-size:12.94005966px;font-family:TimesNewRomanPS-BoldMT;writing-mode:lr-tb;fill:#2c2e35;fill-opacity:1;fill-rule:nonzero;stroke:none" transform="translate(193.99145,800.52539)">
                <tspan y="0" x="0 8.9026098 15.243239 21.402708 27.603725">Дхату</tspan>
            </text>
            <text style="font-variant:normal;font-weight:bold;font-size:12.94005966px;font-family:TimesNewRomanPS-BoldMT;writing-mode:lr-tb;fill:#2c2e35;fill-opacity:1;fill-rule:nonzero;stroke:none" transform="translate(231.33904,800.52539)">
                <tspan y="0" x="0">=</tspan>
            </text>
            <text style="font-variant:normal;font-weight:bold;font-size:12.94005966px;font-family:TimesNewRomanPS-BoldMT;writing-mode:lr-tb;fill:#2c2e35;fill-opacity:1;fill-rule:nonzero;stroke:none" transform="translate(188.2748,813.50605)">
                <tspan y="0" x="0 6.4700298 13.705495 19.581596 26.090446 33.546146">органы</tspan>
            </text>
            <text style="font-variant:normal;font-weight:bold;font-size:12.94005966px;font-family:TimesNewRomanPS-BoldMT;writing-mode:lr-tb;fill:#2c2e35;fill-opacity:1;fill-rule:nonzero;stroke:none" transform="translate(235.22377,813.50605)">
                <tspan y="0" x="0">+</tspan>
            </text>
            <text style="font-variant:normal;font-weight:bold;font-size:12.94005966px;font-family:TimesNewRomanPS-BoldMT;writing-mode:lr-tb;fill:#2c2e35;fill-opacity:1;fill-rule:nonzero;stroke:none" transform="translate(197.17958,826.4867)">
                <tspan y="0" x="0 6.3562989 13.656717 20.126747 27.621265">ткани</tspan>
            </text>
            <text style="font-variant:normal;font-weight:bold;font-size:12.94005966px;font-family:TimesNewRomanPS-BoldMT;writing-mode:lr-tb;fill:#2c2e35;fill-opacity:1;fill-rule:nonzero;stroke:none" transform="translate(180.57958,896.25526)">
                <tspan y="0" x="0 8.1650772 15.361721 26.104195 33.391674 39.861702 47.356224 53.955654 61.215481">Триканала</tspan>
            </text>
            <text style="font-variant:normal;font-weight:bold;font-size:12.94005966px;font-family:TimesNewRomanPS-BoldMT;writing-mode:lr-tb;fill:#2c2e35;fill-opacity:1;fill-rule:nonzero;stroke:none" transform="translate(180.82063,963.47584)">
                <tspan y="0" x="0 8.1650772 15.361721 26.104195 33.559895 39.551144 46.848881 53.47419 60.73402">Триначала</tspan>
            </text>
            <text style="font-variant:normal;font-weight:bold;font-size:12.94005966px;font-family:TimesNewRomanPS-BoldMT;writing-mode:lr-tb;fill:#2c2e35;fill-opacity:1;fill-rule:nonzero;stroke:none" transform="translate(126.94021,1025.0386)">
                <tspan y="0" x="0 12.252266 18.722296 25.062925 31.532955 37.550083 43.541332 50.01136 56.406479 117.50636 125.67144 132.86809 143.61055 150.61133 157.196">МахабхутыТрияда</tspan>
            </text>
            <text style="font-variant:normal;font-weight:bold;font-size:12.94005966px;font-family:TimesNewRomanPS-BoldMT;writing-mode:lr-tb;fill:#2c2e35;fill-opacity:1;fill-rule:nonzero;stroke:none" transform="translate(412.66041,800.52541)">
                <tspan y="0" x="0 8.9026098 15.243239 21.402708 27.603725">Дхату</tspan>
            </text>
            <text style="font-variant:normal;font-weight:bold;font-size:12.94005966px;font-family:TimesNewRomanPS-BoldMT;writing-mode:lr-tb;fill:#2c2e35;fill-opacity:1;fill-rule:nonzero;stroke:none" transform="translate(450.008,800.52541)">
                <tspan y="0" x="0">=</tspan>
            </text>
            <text style="font-variant:normal;font-weight:bold;font-size:12.94005966px;font-family:TimesNewRomanPS-BoldMT;writing-mode:lr-tb;fill:#2c2e35;fill-opacity:1;fill-rule:nonzero;stroke:none" transform="translate(406.94356,813.50606)">
                <tspan y="0" x="0 6.4700298 13.705495 19.581596 26.090446 33.546146">органы</tspan>
            </text>
            <text style="font-variant:normal;font-weight:bold;font-size:12.94005966px;font-family:TimesNewRomanPS-BoldMT;writing-mode:lr-tb;fill:#2c2e35;fill-opacity:1;fill-rule:nonzero;stroke:none" transform="translate(453.89252,813.50606)">
                <tspan y="0" x="0">+</tspan>
            </text>
            <text style="font-variant:normal;font-weight:bold;font-size:12.94005966px;font-family:TimesNewRomanPS-BoldMT;writing-mode:lr-tb;fill:#2c2e35;fill-opacity:1;fill-rule:nonzero;stroke:none" transform="translate(415.84831,826.48671)">
                <tspan y="0" x="0 6.3562989 13.656717 20.126747 27.621265">ткани</tspan>
            </text>
            <text style="font-variant:normal;font-weight:bold;font-size:12.94005966px;font-family:TimesNewRomanPS-BoldMT;writing-mode:lr-tb;fill:#2c2e35;fill-opacity:1;fill-rule:nonzero;stroke:none" transform="translate(399.24854,896.25527)">
                <tspan y="0" x="0 8.1650772 15.361721 26.104195 33.391674 39.861702 47.356224 53.955654 61.215481">Триканала</tspan>
            </text>
            <text style="font-variant:normal;font-weight:bold;font-size:12.94005966px;font-family:TimesNewRomanPS-BoldMT;writing-mode:lr-tb;fill:#2c2e35;fill-opacity:1;fill-rule:nonzero;stroke:none" transform="translate(399.48936,963.47586)">
                <tspan y="0" x="0 8.1650772 15.361721 26.104195 33.559895 39.551144 46.848881 53.47419 60.73402">Триначала</tspan>
            </text>
            <text style="font-variant:normal;font-weight:bold;font-size:12.94005966px;font-family:TimesNewRomanPS-BoldMT;writing-mode:lr-tb;fill:#2c2e35;fill-opacity:1;fill-rule:nonzero;stroke:none" transform="translate(345.60913,1025.0386)">
                <tspan y="0" x="0 12.252266 18.722296 25.062925 31.532955 37.550083 43.541332 50.01136 56.406479 117.50636 125.67144 132.86809 143.61055 150.61133 157.196">МахабхутыТрияда</tspan>
            </text>
            <text style="font-variant:normal;font-weight:bold;font-size:12.94005966px;font-family:TimesNewRomanPS-BoldMT;writing-mode:lr-tb;fill:#2c2e35;fill-opacity:1;fill-rule:nonzero;stroke:none" transform="translate(631.32935,800.52539)">
                <tspan y="0" x="0 8.9026098 15.243239 21.402708 27.603725">Дхату</tspan>
            </text>
            <text style="font-variant:normal;font-weight:bold;font-size:12.94005966px;font-family:TimesNewRomanPS-BoldMT;writing-mode:lr-tb;fill:#2c2e35;fill-opacity:1;fill-rule:nonzero;stroke:none" transform="translate(668.67694,800.52539)">
                <tspan y="0" x="0">=</tspan>
            </text>
            <text style="font-variant:normal;font-weight:bold;font-size:12.94005966px;font-family:TimesNewRomanPS-BoldMT;writing-mode:lr-tb;fill:#2c2e35;fill-opacity:1;fill-rule:nonzero;stroke:none" transform="translate(625.61249,813.50604)">
                <tspan y="0" x="0 6.4700298 13.705495 19.581596 26.090446 33.546146">органы</tspan>
            </text>
            <text style="font-variant:normal;font-weight:bold;font-size:12.94005966px;font-family:TimesNewRomanPS-BoldMT;writing-mode:lr-tb;fill:#2c2e35;fill-opacity:1;fill-rule:nonzero;stroke:none" transform="translate(672.56146,813.50604)">
                <tspan y="0" x="0">+</tspan>
            </text>
            <text style="font-variant:normal;font-weight:bold;font-size:12.94005966px;font-family:TimesNewRomanPS-BoldMT;writing-mode:lr-tb;fill:#2c2e35;fill-opacity:1;fill-rule:nonzero;stroke:none" transform="translate(634.51727,826.4867)">
                <tspan y="0" x="0 6.3562989 13.656717 20.126747 27.621265">ткани</tspan>
            </text>
            <text style="font-variant:normal;font-weight:bold;font-size:12.94005966px;font-family:TimesNewRomanPS-BoldMT;writing-mode:lr-tb;fill:#2c2e35;fill-opacity:1;fill-rule:nonzero;stroke:none" transform="translate(624.34619,888.77607)">
                <tspan y="0" x="0 9.3448973 16.294214 22.764244 30.258764 36.002178 42.397297 49.385437">Свойства</tspan>
            </text>
            <text style="font-variant:normal;font-weight:bold;font-size:12.94005966px;font-family:TimesNewRomanPS-BoldMT;writing-mode:lr-tb;fill:#2c2e35;fill-opacity:1;fill-rule:nonzero;stroke:none" transform="translate(625.93145,901.75648)">
                <tspan y="0" x="0 7.2598286 13.042064 20.329542 26.799572 34.035038 39.778454 46.173573">лекарств</tspan>
            </text>
            <text style="font-variant:normal;font-weight:bold;font-size:12.94005966px;font-family:TimesNewRomanPS-BoldMT;writing-mode:lr-tb;fill:#2c2e35;fill-opacity:1;fill-rule:nonzero;stroke:none" transform="translate(633.24749,963.47584)">
                <tspan y="0" x="0 8.6309185 15.957217 22.039045 27.782461">Вкусы</tspan>
            </text>
            <text style="font-variant:normal;font-weight:bold;font-size:12.94005966px;font-family:TimesNewRomanPS-BoldMT;writing-mode:lr-tb;fill:#2c2e35;fill-opacity:1;fill-rule:nonzero;stroke:none" transform="translate(618.94542,1025.0386)">
                <tspan y="0" x="0 12.252266 18.722296 25.062925 31.532955 37.550083 43.541332 50.01136 56.406479">Махабхуты</tspan>
            </text>
            <path style="fill:#2c2e35;fill-opacity:1;fill-rule:nonzero;stroke:none" d="M 433.129,656.711 427.926,671 h 10.406 z" />
            <path style="fill:#2c2e35;fill-opacity:1;fill-rule:nonzero;stroke:none" d="m 433.129,835.895 -5.203,14.289 h 10.406 z" />
            <path style="fill:#2c2e35;fill-opacity:1;fill-rule:nonzero;stroke:none" d="m 214.984,835.895 -5.203,14.289 h 10.407 z" />
            <path style="fill:#2c2e35;fill-opacity:1;fill-rule:nonzero;stroke:none" d="m 228.859,972.27 7.161,13.46 6.964,-7.73 z" />
            <path style="fill:#2c2e35;fill-opacity:1;fill-rule:nonzero;stroke:none" d="m 447.527,972.27 7.161,13.46 6.964,-7.73 z" />
            <path style="fill:#2c2e35;fill-opacity:1;fill-rule:nonzero;stroke:none" d="m 257.551,656.629 7.164,13.461 6.965,-7.731 z" />
            <path style="fill:#2c2e35;fill-opacity:1;fill-rule:nonzero;stroke:none" d="m 122.82,726.664 7.16,13.461 6.965,-7.73 z" />
            <path style="fill:#2c2e35;fill-opacity:1;fill-rule:nonzero;stroke:none" d="m 310.402,726.664 -7.164,13.461 -6.965,-7.73 z" />
            <path style="fill:#2c2e35;fill-opacity:1;fill-rule:nonzero;stroke:none" d="m 172.43,656.629 -7.164,13.461 -6.965,-7.731 z" />
            <path style="fill:#2c2e35;fill-opacity:1;fill-rule:nonzero;stroke:none" d="m 199.543,972.27 -7.16,13.46 -6.965,-7.73 z" />
            <path style="fill:#2c2e35;fill-opacity:1;fill-rule:nonzero;stroke:none" d="m 418.215,972.27 -7.164,13.46 -6.965,-7.73 z" />
            <path style="fill:#2c2e35;fill-opacity:1;fill-rule:nonzero;stroke:none" d="m 214.984,656.645 -5.203,14.293 h 10.407 z" />
            <path style="fill:#2c2e35;fill-opacity:1;fill-rule:nonzero;stroke:none" d="m 214.984,726.684 -5.203,14.289 h 10.407 z" />
            <path style="fill:#2c2e35;fill-opacity:1;fill-rule:nonzero;stroke:none" d="m 652.324,835.895 -5.203,14.289 h 10.402 z" />
            <path style="fill:#2c2e35;fill-opacity:1;fill-rule:nonzero;stroke:none" d="m 433.129,905.93 -5.203,14.289 h 10.406 z" />
            <path style="fill:#2c2e35;fill-opacity:1;fill-rule:nonzero;stroke:none" d="m 214.984,905.93 -5.203,14.289 h 10.407 z" />
            <path style="fill:#2c2e35;fill-opacity:1;fill-rule:nonzero;stroke:none" d="m 652.324,911.121 -5.203,14.289 h 10.402 z" />
            <path style="fill:#2c2e35;fill-opacity:1;fill-rule:nonzero;stroke:none" d="m 652.324,972.695 -5.203,14.289 h 10.402 z" />
            <path style="fill:#2c2e35;fill-opacity:1;fill-rule:nonzero;stroke:none" d="M 651.797,656.711 646.594,671 H 657 Z" />
            <path style="fill:#2c2e35;fill-opacity:1;fill-rule:nonzero;stroke:none" d="m 394.543,612.133 -5.203,-14.309 h 10.406 z" />
            <path style="fill:#2c2e35;fill-opacity:1;fill-rule:nonzero;stroke:none" d="m 610.836,612.133 -5.203,-14.309 h 10.406 z" />
            <path style="fill:#2c2e35;fill-opacity:1;fill-rule:nonzero;stroke:none" d="m 176.547,613.5 -5.203,-14.309 h 10.406 z" />
            <path style="fill:#2c2e35;fill-opacity:1;fill-rule:nonzero;stroke:none" d="m 685.051,613.5 -5.203,-14.309 h 10.406 z" />
        </g>
    </g>
</svg>
