<?xml version="1.0" encoding="UTF-8"?>
<svg viewBox="0 0 180.4 122.25" xml:space="preserve" xmlns="http://www.w3.org/2000/svg"><path d="m93.711 21.219c1.8662-0.27202 3.5536-1.3965 4.4082-2.9654 0.72811-1.3285 0.77943-3.0741 0.10918-4.4514-0.56884-0.97656-1.422-1.7498-2.2183-2.4239-0.95177-0.65188-1.4772-0.63578-2.8654-0.80952l0.02518 0.02277-0.0073-4.2e-5c0.76896-0.87282 1.9722-2.3659 2.0965-4.1472-0.06701-1.7899 0.10224-2.0039-1.9465-4.1628-0.04435-0.046741 0.09329 0.085262-0.0087-0.00312-1.4575-1.262-3.9766-3.4764-2.6792-1.4642 2.5667 4.1309 0.23684 6.7158-1.0485 8.1311-3.6896 4.0837-4.0782 7.1764-2.1883 9.7527 1.3488 1.8565 3.8938 2.8687 6.3235 2.5212z" stroke-width=".10694"/><g fill="#000000"><text x="13.851529" y="14.695632" font-family="'Times New Roman'" font-size="5.9632px" font-weight="bold" stroke-width=".74538" style="font-variant-caps:normal;font-variant-east-asian:normal;font-variant-ligatures:normal;font-variant-numeric:normal" xml:space="preserve"><tspan x="13.851529" y="14.695632">Бинду = единство</tspan><tspan x="13.851529" y="22.199286">Ваджрадхара</tspan></text><text x="19.470222" y="116.20153" font-family="'Times New Roman'" font-size="7.5094px" font-weight="bold" stroke-width=".93865" style="font-variant-caps:normal;font-variant-east-asian:normal;font-variant-ligatures:normal;font-variant-numeric:normal" xml:space="preserve"><tspan x="19.470222" y="116.20153">Амитабха</tspan><tspan x="19.470222" y="125.65076"/><tspan x="19.470222" y="135.03743"/></text><text x="20.809202" y="72.573311" font-family="Roboto" font-size="7.5094px" stroke-width=".93865" style="font-variant-caps:normal;font-variant-east-asian:normal;font-variant-ligatures:normal;font-variant-numeric:normal" xml:space="preserve"><tspan x="20.809202" y="72.573311" font-family="'Times New Roman'" font-size="7.5094px" font-weight="bold" stroke-width=".93865">Акшобхья</tspan></text></g><g stroke="#000"><path d="m60.784 22.578 19.655-5.1715" stroke-width="1.1459"/><path d="m62.881 65.036 16.906-22.464" stroke-width=".87463"/><path d="m61.744 110.83 16.224-38.075" stroke-width=".88013"/></g><g fill="#000000"><text x="141.12344" y="32.385166" font-family="'Times New Roman'" font-size="6.8268px" font-weight="bold" stroke-width=".85332" style="font-variant-caps:normal;font-variant-east-asian:normal;font-variant-ligatures:normal;font-variant-numeric:normal" xml:space="preserve"><tspan x="141.12344" y="32.385166">Вайрочана</tspan><tspan x="141.12344" y="40.975391"/><tspan x="141.12344" y="49.508724"/></text><text x="125.74921" y="79.281349" font-family="'Times New Roman'" font-size="6.641px" font-weight="bold" stroke-width=".8301" style="font-variant-caps:normal;font-variant-east-asian:normal;font-variant-ligatures:normal;font-variant-numeric:normal" xml:space="preserve"><tspan x="125.74921" y="79.281349">Ратнасамбхава</tspan><tspan x="125.74921" y="87.637848"/><tspan x="125.74921" y="95.994354"/><tspan x="125.74921" y="104.35086"/><tspan x="125.74921" y="112.65202"/></text><text x="126.48229" y="119.59502" font-family="Roboto" font-size="6.944px" stroke-width=".86798" style="font-variant-caps:normal;font-variant-east-asian:normal;font-variant-ligatures:normal;font-variant-numeric:normal" xml:space="preserve"><tspan x="126.48229" y="119.59502" font-family="'Times New Roman'" font-size="6.944px" font-weight="bold" stroke-width=".86798">Амогхасиддхи</tspan></text></g><g stroke="#000"><path d="m133.67 29.107-27.646 0.22583" stroke-width="1.0586"/><path d="m126.65 67.95-19.943-14.165" stroke-width=".8745"/><path d="m126.8 110.9-18.264-9.8222" stroke-width=".86957"/></g><g stroke-width=".93865"><path d="m92.99 23.588c-4.6679 0-8.4479 3.7818-8.4479 8.4479 0 4.666 3.7799 8.4479 8.4479 8.4479 4.6604 0 8.4479-3.7818 8.4479-8.4479 0-4.666-3.7875-8.4479-8.4479-8.4479zm3.6664 14.802c-1.8444 1.0635-4.9758-0.91894-7.0033-4.4257-2.0275-3.5087-2.1777-7.2173-0.3304-8.2808 1.8444-1.0635 4.9758 0.91894 7.0033 4.4257 2.0284 3.5106 2.1749 7.2173 0.3304 8.2808z"/><path d="m86.973 55.727s-7.1976 3.5124-8.8402 7.4379v6.0092s7.4726-1.3695 13.222 4.3797c0 0-1.6426-9.1518-11.11-10.716 0 0 5.8553-5.7014 9.7789-6.7282l-3.0506-0.38297z"/><path d="m90.531 50.324h-10.032s0.29286 6.2777 3.2853 6.2777h6.747z"/><path d="m95.261 50.324h10.032s-0.29286 6.2777-3.2853 6.2777h-6.747z"/><rect x="85.011" y="50.305" width="14.234" height="6.3143"/><path d="m88.381 68.784s1.2503-9.1518 10.56-9.1518c3.3622 0 15.447 5.4338 1.4849 21.274 0 0 3.6776-7.4285 3.6776-10.089 0 0 1.3826-5.8666-8.2132-5.8666-3.5199 0-5.0086 0.94053-7.5092 3.8334z"/><path d="m92.98 44.048c-6.2589 0-11.337-4.2878-11.568-9.6409-0.0038 0.17271-0.04412 0.33228-0.04412 0.50593 0 7.5017 5.1992 13.585 11.612 13.585 6.4204 0 11.62-6.0825 11.62-13.585 0-0.17459-0.0404-0.33322-0.0441-0.50593-0.23091 5.3531-5.3128 9.6409-11.575 9.6409z"/><path d="m107.7 105.86s-2.0754-10.626-10.468-10.967l-2.4386 4.085s8.1653-2.1927 12.906 6.8822z"/><path d="m93.422 80.909h-6.9516s0.20556 4.5102 2.2809 4.5102h4.6717v-4.5102z"/><path d="m101.23 80.909h6.9516s-0.20556 4.5102-2.2809 4.5102h-4.6717v-4.5102z"/><rect x="90.315" y="80.909" width="14.726" height="4.5102"/><path d="m91.432 84.114s-5.4554 3.6373-5.0452 6.6879c0.41019 3.0506 0.99685 5.5146 1.9946 6.5124l1.5844-4.2239s-4.2821-4.4182 3.4617-8.4479z"/><path d="m100.11 84.085c-0.9058 0-1.7487 0.25625-2.5081 0.67114 0.44774-0.19055 0.92363-0.31914 1.423-0.31914 2.5447 0 4.605 2.6658 4.605 5.9548s-2.0603 5.9548-4.605 5.9548c-0.49842 0-0.9715-0.1286-1.423-0.31914 0.75937 0.41394 1.6023 0.67114 2.5081 0.67114 3.1464 0 5.6901-2.8235 5.6901-6.3068s-2.5437-6.3068-5.6901-6.3068z"/><path d="m76.526 81.298s4.5759 3.2853 7.0399 12.554c2.464 9.2692 7.6265 24.992 16.426 24.992 0 0 5.8084 1.3498 5.8084-5.1626 0 0 0.41113-4.1066-3.6964-4.1066 0 0-3.1679 0.11733-4.6933 3.1679 0 0-2.464-2.5813-2.464-3.9893 0 0 0.58666-5.1626 6.3359-5.1626 5.7492 0 7.1572 5.8666 7.1572 8.9172 0 3.2853-3.9893 9.7385-10.208 9.7385-8.2132 0-13.141-5.1626-14.784-14.314-1.6426-9.1518-4.6933-23.232-6.9225-26.634z"/></g></svg>
