<?xml version="1.0" encoding="UTF-8"?>
<!-- Created with Inkscape (http://www.inkscape.org/) -->
<svg width="180.4mm" height="122.25mm" version="1.1" viewBox="0 0 180.4 122.25" xml:space="preserve" xmlns="http://www.w3.org/2000/svg"><g transform="translate(-14.8 -87.376)"><g transform="matrix(3.5477 0 0 3.5477 -311.1 -741.92)"><g transform="translate(-.6442)"><g transform="translate(-6.9988 6.0148)"><text x="136.05293" y="236.99762" fill="#000000" font-family="'Times New Roman'" font-size="2.1167px" font-weight="bold" stroke-width=".26458" style="font-variant-caps:normal;font-variant-east-asian:normal;font-variant-ligatures:normal;font-variant-numeric:normal" xml:space="preserve"><tspan x="136.05293" y="236.99762">Вайрочана</tspan><tspan x="136.05293" y="239.6611"/><tspan x="136.05293" y="242.30695"/></text></g><text x="92.471542" y="238.86331" fill="#000000" font-family="'Times New Roman'" font-size="2.1167px" font-weight="bold" stroke-width=".26458" style="font-variant-caps:normal;font-variant-east-asian:normal;font-variant-ligatures:normal;font-variant-numeric:normal" xml:space="preserve"><tspan x="92.471542" y="238.86331">Бинду = единство</tspan><tspan x="92.471542" y="241.52679">Ваджрадхара</tspan></text><g transform="translate(-4.4457 -2.7312)"><text x="133.4906" y="256.88614" fill="#000000" font-family="'Times New Roman'" font-size="2.1167px" font-weight="bold" stroke-width=".26458" style="font-variant-caps:normal;font-variant-east-asian:normal;font-variant-ligatures:normal;font-variant-numeric:normal" xml:space="preserve"><tspan x="133.4906" y="256.88614">Ратнасамбхава</tspan><tspan x="133.4906" y="259.54962"/><tspan x="133.4906" y="262.2131"/><tspan x="133.4906" y="264.87659"/><tspan x="133.4906" y="267.52243"/></text></g><g transform="translate(1.3049 8.9301)"><text x="127.77721" y="256.99518" fill="#000000" font-family="Roboto" font-size="2.1167px" stroke-width=".26458" style="font-variant-caps:normal;font-variant-east-asian:normal;font-variant-ligatures:normal;font-variant-numeric:normal" xml:space="preserve"><tspan x="127.77721" y="256.99518" font-family="'Times New Roman'" font-size="2.1167px" font-weight="bold" stroke-width=".26458">Амогхасиддхи</tspan></text></g><g stroke-width=".26458"><text x="99.87059" y="266.25632" fill="#000000" font-family="'Times New Roman'" font-size="2.1167px" font-weight="bold" style="font-variant-caps:normal;font-variant-east-asian:normal;font-variant-ligatures:normal;font-variant-numeric:normal" xml:space="preserve"><tspan x="99.87059" y="266.25632">Амитабха</tspan><tspan x="99.87059" y="268.9198"/><tspan x="99.87059" y="271.56564"/></text><text x="99.402397" y="253.40906" fill="#000000" font-family="Roboto" font-size="2.1167px" style="font-variant-caps:normal;font-variant-east-asian:normal;font-variant-ligatures:normal;font-variant-numeric:normal" xml:space="preserve"><tspan x="99.402397" y="253.40906" font-family="'Times New Roman'" font-size="2.1167px" font-weight="bold" stroke-width=".26458">Акшобхья</tspan></text><path d="m115.05 238.1-5.7978 1.6749z" fill="#1a1a1a"/></g><g stroke="#000"><path d="m109.64 240.12 5.5402-1.4577" stroke-width=".32299"/><g stroke-width=".26458"><path d="m109.9 252.59 5.0892-6.8286"/><path d="m109.58 265.67 4.896-11.402"/><path d="m128.45 241.96-6.0555 0.0644"/><path d="m128.58 253.24-5.9911-4.3162"/><path d="m128.71 265.22-5.6046-2.9633"/></g></g></g><g transform="matrix(.11808 0 0 .10993 107.74 213.4)"><path d="m89.236 239.58c4.4549-0.69749 8.4828-3.5807 10.523-7.6035 1.7381-3.4063 1.8606-7.8824 0.26064-11.414-1.3579-2.504-3.3944-4.4866-5.2954-6.2152-2.272-1.6715-3.5262-1.6302-6.8402-2.0757l0.06012 0.0584-0.01747-1.1e-4c1.8356-2.238 4.7079-6.0665 5.0046-10.634-0.15997-4.5896 0.24406-5.1383-4.6466-10.674-0.10588-0.11985 0.22269 0.21862-0.02067-8e-3 -3.4794-3.2358-9.4928-8.9139-6.3957-3.7545 6.1271 10.592 0.56537 17.22-2.5029 20.849-8.8075 10.471-9.7352 18.401-5.2238 25.007 3.2198 4.7602 9.2949 7.3557 15.095 6.4646z" stroke-width=".26458"/></g><g transform="matrix(.26458 0 0 .26458 46.727 238.46)">
		<path d="m269.66 7.35c-4.973 0-9 4.029-9 9s4.027 9 9 9c4.965 0 9-4.029 9-9s-4.035-9-9-9zm3.906 15.769c-1.965 1.133-5.301-0.979-7.461-4.715-2.16-3.738-2.32-7.689-0.352-8.822 1.965-1.133 5.301 0.979 7.461 4.715 2.161 3.74 2.317 7.689 0.352 8.822z"/>
		
			
				<path d="m263.25 41.59s-7.668 3.742-9.418 7.924v6.402s7.961-1.459 14.086 4.666c0 0-1.75-9.75-11.836-11.416 0 0 6.238-6.074 10.418-7.168-3.25-0.408-3.25-0.408-3.25-0.408z"/>
				
					<path d="m267.04 35.834h-10.688s0.312 6.688 3.5 6.688h7.188z"/>
					<path d="m272.08 35.834h10.688s-0.312 6.688-3.5 6.688h-7.188z"/>
					<rect x="261.16" y="35.814" width="15.164" height="6.727"/>
				
			
			<path d="m264.75 55.5s1.332-9.75 11.25-9.75c3.582 0 16.457 5.789 1.582 22.664 0 0 3.918-7.914 3.918-10.748 0 0 1.473-6.25-8.75-6.25-3.75 0-5.336 1.002-8 4.084z"/>
		
		<path d="m269.65 29.148c-6.668 0-12.078-4.568-12.324-10.271-4e-3 0.184-0.047 0.354-0.047 0.539 0 7.992 5.539 14.473 12.371 14.473 6.84 0 12.379-6.48 12.379-14.473 0-0.186-0.043-0.355-0.047-0.539-0.246 5.703-5.66 10.271-12.332 10.271z"/>
		
			<path d="m285.33 95s-2.211-11.32-11.152-11.684l-2.598 4.352s8.699-2.336 13.75 7.332z"/>
			
				<path d="m270.12 68.418h-7.406s0.219 4.805 2.43 4.805h4.977v-4.805z"/>
				<path d="m278.44 68.418h7.406s-0.219 4.805-2.43 4.805h-4.977v-4.805z"/>
				<rect x="266.81" y="68.418" width="15.688" height="4.805"/>
			
			<path d="m268 71.832s-5.812 3.875-5.375 7.125 1.062 5.875 2.125 6.938l1.688-4.5s-4.562-4.707 3.688-9z"/>
			<path d="m277.25 71.801c-0.965 0-1.863 0.273-2.672 0.715 0.477-0.203 0.984-0.34 1.516-0.34 2.711 0 4.906 2.84 4.906 6.344s-2.195 6.344-4.906 6.344c-0.531 0-1.035-0.137-1.516-0.34 0.809 0.441 1.707 0.715 2.672 0.715 3.352 0 6.062-3.008 6.062-6.719s-2.71-6.719-6.062-6.719z"/>
		
		<path d="m252.12 68.832s4.875 3.5 7.5 13.375 8.125 26.625 17.5 26.625c0 0 6.188 1.438 6.188-5.5 0 0 0.438-4.375-3.938-4.375 0 0-3.375 0.125-5 3.375 0 0-2.625-2.75-2.625-4.25 0 0 0.625-5.5 6.75-5.5s7.625 6.25 7.625 9.5c0 3.5-4.25 10.375-10.875 10.375-8.75 0-14-5.5-15.75-15.25s-5-24.75-7.375-28.375z"/>
	</g></g></g></svg>
